<mxfile host="app.diagrams.net" agent="Mozilla/5.0 (Windows NT 10.0; Win64; x64) AppleWebKit/537.36 (KHTML, like Gecko) Chrome/136.0.0.0 Safari/537.36" version="27.0.6">
  <diagram id="R2lEEEUBdFMjLlhIrx00" name="Page-1">
    <mxGraphModel dx="2515" dy="785" grid="1" gridSize="10" guides="1" tooltips="1" connect="1" arrows="1" fold="1" page="1" pageScale="1" pageWidth="850" pageHeight="1100" math="0" shadow="0" extFonts="Permanent Marker^https://fonts.googleapis.com/css?family=Permanent+Marker">
      <root>
        <mxCell id="0" />
        <mxCell id="1" parent="0" />
        <mxCell id="-WyuzStrVO0EPppABQ4v-17" value="Empleado" style="rounded=0;whiteSpace=wrap;html=1;fillColor=#9999FF;" parent="1" vertex="1">
          <mxGeometry x="260" y="280" width="160" height="50" as="geometry" />
        </mxCell>
        <mxCell id="-WyuzStrVO0EPppABQ4v-18" value="&lt;u&gt;id_empleado&lt;/u&gt;" style="ellipse;whiteSpace=wrap;html=1;fillColor=#FFFFCC;" parent="1" vertex="1">
          <mxGeometry x="20" y="10" width="110" height="40" as="geometry" />
        </mxCell>
        <mxCell id="-WyuzStrVO0EPppABQ4v-20" value="" style="endArrow=none;html=1;rounded=0;exitX=0.927;exitY=0.75;exitDx=0;exitDy=0;exitPerimeter=0;entryX=0;entryY=0;entryDx=0;entryDy=0;" parent="1" source="-WyuzStrVO0EPppABQ4v-18" target="-WyuzStrVO0EPppABQ4v-17" edge="1">
          <mxGeometry width="50" height="50" relative="1" as="geometry">
            <mxPoint x="100" y="150" as="sourcePoint" />
            <mxPoint x="150" y="100" as="targetPoint" />
          </mxGeometry>
        </mxCell>
        <mxCell id="-WyuzStrVO0EPppABQ4v-21" value="PK" style="text;html=1;align=center;verticalAlign=middle;whiteSpace=wrap;rounded=0;" parent="1" vertex="1">
          <mxGeometry x="120" y="45" width="60" height="30" as="geometry" />
        </mxCell>
        <mxCell id="-WyuzStrVO0EPppABQ4v-24" value="Nombre" style="ellipse;whiteSpace=wrap;html=1;fillColor=#FFFFCC;" parent="1" vertex="1">
          <mxGeometry x="20" y="65" width="110" height="40" as="geometry" />
        </mxCell>
        <mxCell id="-WyuzStrVO0EPppABQ4v-25" value="Apellido" style="ellipse;whiteSpace=wrap;html=1;fillColor=#FFFFCC;" parent="1" vertex="1">
          <mxGeometry x="20" y="120" width="110" height="40" as="geometry" />
        </mxCell>
        <mxCell id="JUDI98_K_U3rOWkHYfDf-12" style="edgeStyle=orthogonalEdgeStyle;rounded=0;orthogonalLoop=1;jettySize=auto;html=1;" edge="1" parent="1" source="-WyuzStrVO0EPppABQ4v-27" target="-WyuzStrVO0EPppABQ4v-28">
          <mxGeometry relative="1" as="geometry" />
        </mxCell>
        <mxCell id="-WyuzStrVO0EPppABQ4v-27" value="Fecha_Nacimiento" style="ellipse;whiteSpace=wrap;html=1;fillColor=#FFFFCC;" parent="1" vertex="1">
          <mxGeometry x="20" y="225" width="110" height="40" as="geometry" />
        </mxCell>
        <mxCell id="-WyuzStrVO0EPppABQ4v-28" value="Dirección" style="ellipse;whiteSpace=wrap;html=1;fillColor=#FFFFCC;" parent="1" vertex="1">
          <mxGeometry x="20" y="285" width="110" height="40" as="geometry" />
        </mxCell>
        <mxCell id="-WyuzStrVO0EPppABQ4v-30" value="Teléfono" style="ellipse;whiteSpace=wrap;html=1;fillColor=#FFFFCC;" parent="1" vertex="1">
          <mxGeometry x="20" y="340" width="110" height="40" as="geometry" />
        </mxCell>
        <mxCell id="-WyuzStrVO0EPppABQ4v-31" value="Fecha_Ingreso" style="ellipse;whiteSpace=wrap;html=1;fillColor=#FFFFCC;" parent="1" vertex="1">
          <mxGeometry x="20" y="400" width="110" height="40" as="geometry" />
        </mxCell>
        <mxCell id="-WyuzStrVO0EPppABQ4v-32" value="Salario" style="ellipse;whiteSpace=wrap;html=1;fillColor=#FFFFCC;" parent="1" vertex="1">
          <mxGeometry x="20" y="460" width="110" height="40" as="geometry" />
        </mxCell>
        <mxCell id="-WyuzStrVO0EPppABQ4v-33" value="Estado_Empleado" style="ellipse;whiteSpace=wrap;html=1;fillColor=#FFFFCC;" parent="1" vertex="1">
          <mxGeometry x="20" y="520" width="110" height="40" as="geometry" />
        </mxCell>
        <mxCell id="-WyuzStrVO0EPppABQ4v-34" value="" style="endArrow=none;html=1;rounded=0;exitX=0.945;exitY=0.675;exitDx=0;exitDy=0;exitPerimeter=0;entryX=0;entryY=0.25;entryDx=0;entryDy=0;" parent="1" target="-WyuzStrVO0EPppABQ4v-17" edge="1" source="-WyuzStrVO0EPppABQ4v-24">
          <mxGeometry width="50" height="50" relative="1" as="geometry">
            <mxPoint x="130" y="120" as="sourcePoint" />
            <mxPoint x="268" y="365" as="targetPoint" />
          </mxGeometry>
        </mxCell>
        <mxCell id="-WyuzStrVO0EPppABQ4v-35" value="" style="endArrow=none;html=1;rounded=0;exitX=0.927;exitY=0.725;exitDx=0;exitDy=0;exitPerimeter=0;entryX=0;entryY=0.5;entryDx=0;entryDy=0;" parent="1" target="-WyuzStrVO0EPppABQ4v-17" edge="1" source="-WyuzStrVO0EPppABQ4v-25">
          <mxGeometry width="50" height="50" relative="1" as="geometry">
            <mxPoint x="130" y="170" as="sourcePoint" />
            <mxPoint x="230" y="330" as="targetPoint" />
          </mxGeometry>
        </mxCell>
        <mxCell id="-WyuzStrVO0EPppABQ4v-36" value="" style="endArrow=none;html=1;rounded=0;exitX=0.936;exitY=0.65;exitDx=0;exitDy=0;exitPerimeter=0;entryX=0;entryY=0.5;entryDx=0;entryDy=0;" parent="1" target="-WyuzStrVO0EPppABQ4v-17" edge="1" source="-WyuzStrVO0EPppABQ4v-27">
          <mxGeometry width="50" height="50" relative="1" as="geometry">
            <mxPoint x="130" y="227.5" as="sourcePoint" />
            <mxPoint x="268" y="472.5" as="targetPoint" />
          </mxGeometry>
        </mxCell>
        <mxCell id="-WyuzStrVO0EPppABQ4v-37" value="" style="endArrow=none;html=1;rounded=0;exitX=0.955;exitY=0.7;exitDx=0;exitDy=0;exitPerimeter=0;entryX=0;entryY=0.5;entryDx=0;entryDy=0;" parent="1" target="-WyuzStrVO0EPppABQ4v-17" edge="1" source="-WyuzStrVO0EPppABQ4v-28">
          <mxGeometry width="50" height="50" relative="1" as="geometry">
            <mxPoint x="131" y="287.5" as="sourcePoint" />
            <mxPoint x="269" y="532.5" as="targetPoint" />
          </mxGeometry>
        </mxCell>
        <mxCell id="-WyuzStrVO0EPppABQ4v-39" value="" style="endArrow=none;html=1;rounded=0;exitX=1;exitY=0.5;exitDx=0;exitDy=0;" parent="1" source="-WyuzStrVO0EPppABQ4v-30" edge="1">
          <mxGeometry width="50" height="50" relative="1" as="geometry">
            <mxPoint x="130" y="343.75" as="sourcePoint" />
            <mxPoint x="260" y="300" as="targetPoint" />
          </mxGeometry>
        </mxCell>
        <mxCell id="-WyuzStrVO0EPppABQ4v-40" value="" style="endArrow=none;html=1;rounded=0;" parent="1" source="-WyuzStrVO0EPppABQ4v-31" edge="1">
          <mxGeometry width="50" height="50" relative="1" as="geometry">
            <mxPoint x="130" y="400" as="sourcePoint" />
            <mxPoint x="260" y="310" as="targetPoint" />
          </mxGeometry>
        </mxCell>
        <mxCell id="-WyuzStrVO0EPppABQ4v-41" value="" style="endArrow=none;html=1;rounded=0;exitX=0.945;exitY=0.25;exitDx=0;exitDy=0;exitPerimeter=0;" parent="1" edge="1" source="-WyuzStrVO0EPppABQ4v-32">
          <mxGeometry width="50" height="50" relative="1" as="geometry">
            <mxPoint x="130" y="467.5" as="sourcePoint" />
            <mxPoint x="260" y="310" as="targetPoint" />
          </mxGeometry>
        </mxCell>
        <mxCell id="-WyuzStrVO0EPppABQ4v-42" value="" style="endArrow=none;html=1;rounded=0;exitX=0.936;exitY=0.275;exitDx=0;exitDy=0;exitPerimeter=0;entryX=0;entryY=0.75;entryDx=0;entryDy=0;" parent="1" source="-WyuzStrVO0EPppABQ4v-33" target="-WyuzStrVO0EPppABQ4v-17" edge="1">
          <mxGeometry width="50" height="50" relative="1" as="geometry">
            <mxPoint x="190" y="470" as="sourcePoint" />
            <mxPoint x="328" y="715" as="targetPoint" />
          </mxGeometry>
        </mxCell>
        <mxCell id="-WyuzStrVO0EPppABQ4v-43" value="Departamento" style="rounded=0;whiteSpace=wrap;html=1;fillColor=#9999FF;" parent="1" vertex="1">
          <mxGeometry x="580" y="280" width="160" height="50" as="geometry" />
        </mxCell>
        <mxCell id="-WyuzStrVO0EPppABQ4v-44" value="&lt;u&gt;id_departamento&lt;/u&gt;" style="ellipse;whiteSpace=wrap;html=1;fillColor=#FFFFCC;" parent="1" vertex="1">
          <mxGeometry x="790" y="190" width="110" height="40" as="geometry" />
        </mxCell>
        <mxCell id="-WyuzStrVO0EPppABQ4v-45" value="" style="endArrow=none;html=1;rounded=0;exitX=0.073;exitY=0.725;exitDx=0;exitDy=0;exitPerimeter=0;entryX=1;entryY=0.25;entryDx=0;entryDy=0;" parent="1" source="-WyuzStrVO0EPppABQ4v-44" target="-WyuzStrVO0EPppABQ4v-43" edge="1">
          <mxGeometry width="50" height="50" relative="1" as="geometry">
            <mxPoint x="800" y="180" as="sourcePoint" />
            <mxPoint x="670" y="380" as="targetPoint" />
          </mxGeometry>
        </mxCell>
        <mxCell id="-WyuzStrVO0EPppABQ4v-46" value="Nombre_Departamento" style="ellipse;whiteSpace=wrap;html=1;fillColor=#FFFFCC;" parent="1" vertex="1">
          <mxGeometry x="790" y="250" width="140" height="40" as="geometry" />
        </mxCell>
        <mxCell id="-WyuzStrVO0EPppABQ4v-47" value="PK" style="text;html=1;align=center;verticalAlign=middle;whiteSpace=wrap;rounded=0;" parent="1" vertex="1">
          <mxGeometry x="730" y="230" width="60" height="30" as="geometry" />
        </mxCell>
        <mxCell id="-WyuzStrVO0EPppABQ4v-48" value="Descripción" style="ellipse;whiteSpace=wrap;html=1;fillColor=#FFFFCC;" parent="1" vertex="1">
          <mxGeometry x="800" y="310" width="110" height="40" as="geometry" />
        </mxCell>
        <mxCell id="-WyuzStrVO0EPppABQ4v-49" value="Ubicación" style="ellipse;whiteSpace=wrap;html=1;fillColor=#FFFFCC;" parent="1" vertex="1">
          <mxGeometry x="800" y="370" width="110" height="40" as="geometry" />
        </mxCell>
        <mxCell id="-WyuzStrVO0EPppABQ4v-50" value="" style="endArrow=none;html=1;rounded=0;exitX=0;exitY=0.5;exitDx=0;exitDy=0;entryX=1;entryY=0.25;entryDx=0;entryDy=0;" parent="1" source="-WyuzStrVO0EPppABQ4v-46" edge="1">
          <mxGeometry width="50" height="50" relative="1" as="geometry">
            <mxPoint x="798" y="236" as="sourcePoint" />
            <mxPoint x="740" y="310" as="targetPoint" />
          </mxGeometry>
        </mxCell>
        <mxCell id="-WyuzStrVO0EPppABQ4v-51" value="" style="endArrow=none;html=1;rounded=0;exitX=0.082;exitY=0.25;exitDx=0;exitDy=0;exitPerimeter=0;entryX=1;entryY=0.75;entryDx=0;entryDy=0;" parent="1" source="-WyuzStrVO0EPppABQ4v-48" target="-WyuzStrVO0EPppABQ4v-43" edge="1">
          <mxGeometry width="50" height="50" relative="1" as="geometry">
            <mxPoint x="818" y="239" as="sourcePoint" />
            <mxPoint x="760" y="313" as="targetPoint" />
          </mxGeometry>
        </mxCell>
        <mxCell id="-WyuzStrVO0EPppABQ4v-52" value="" style="endArrow=none;html=1;rounded=0;entryX=1;entryY=1;entryDx=0;entryDy=0;" parent="1" source="-WyuzStrVO0EPppABQ4v-49" target="-WyuzStrVO0EPppABQ4v-43" edge="1">
          <mxGeometry width="50" height="50" relative="1" as="geometry">
            <mxPoint x="798" y="350" as="sourcePoint" />
            <mxPoint x="740" y="424" as="targetPoint" />
          </mxGeometry>
        </mxCell>
        <mxCell id="-WyuzStrVO0EPppABQ4v-53" value="TRABAJA_&lt;div&gt;EN&lt;/div&gt;" style="rhombus;whiteSpace=wrap;html=1;fillColor=#CCFFFF;" parent="1" vertex="1">
          <mxGeometry x="450" y="130" width="100" height="100" as="geometry" />
        </mxCell>
        <mxCell id="-WyuzStrVO0EPppABQ4v-54" value="" style="endArrow=none;html=1;rounded=0;exitX=1;exitY=0.5;exitDx=0;exitDy=0;entryX=0;entryY=1;entryDx=0;entryDy=0;" parent="1" source="-WyuzStrVO0EPppABQ4v-17" target="-WyuzStrVO0EPppABQ4v-53" edge="1">
          <mxGeometry width="50" height="50" relative="1" as="geometry">
            <mxPoint x="410" y="410" as="sourcePoint" />
            <mxPoint x="460" y="360" as="targetPoint" />
          </mxGeometry>
        </mxCell>
        <mxCell id="-WyuzStrVO0EPppABQ4v-55" value="" style="endArrow=none;html=1;rounded=0;entryX=0;entryY=0.5;entryDx=0;entryDy=0;exitX=1;exitY=1;exitDx=0;exitDy=0;" parent="1" source="-WyuzStrVO0EPppABQ4v-53" target="-WyuzStrVO0EPppABQ4v-43" edge="1">
          <mxGeometry width="50" height="50" relative="1" as="geometry">
            <mxPoint x="540" y="260" as="sourcePoint" />
            <mxPoint x="460" y="360" as="targetPoint" />
          </mxGeometry>
        </mxCell>
        <mxCell id="-WyuzStrVO0EPppABQ4v-56" value="N" style="text;html=1;align=center;verticalAlign=middle;whiteSpace=wrap;rounded=0;" parent="1" vertex="1">
          <mxGeometry x="400" y="300" width="60" height="30" as="geometry" />
        </mxCell>
        <mxCell id="-WyuzStrVO0EPppABQ4v-57" value="1" style="text;html=1;align=center;verticalAlign=middle;whiteSpace=wrap;rounded=0;" parent="1" vertex="1">
          <mxGeometry x="540" y="300" width="60" height="30" as="geometry" />
        </mxCell>
        <mxCell id="-WyuzStrVO0EPppABQ4v-58" value="Puesto" style="rounded=0;whiteSpace=wrap;html=1;fillColor=#9999FF;" parent="1" vertex="1">
          <mxGeometry x="430" y="590" width="160" height="50" as="geometry" />
        </mxCell>
        <mxCell id="-WyuzStrVO0EPppABQ4v-59" value="Título_Puesto" style="ellipse;whiteSpace=wrap;html=1;fillColor=#FFFFCC;" parent="1" vertex="1">
          <mxGeometry x="230" y="800" width="110" height="40" as="geometry" />
        </mxCell>
        <mxCell id="-WyuzStrVO0EPppABQ4v-60" value="&lt;u&gt;id_puesto&lt;/u&gt;" style="ellipse;whiteSpace=wrap;html=1;fillColor=#FFFFCC;" parent="1" vertex="1">
          <mxGeometry x="100" y="800" width="110" height="40" as="geometry" />
        </mxCell>
        <mxCell id="-WyuzStrVO0EPppABQ4v-61" value="Descripción" style="ellipse;whiteSpace=wrap;html=1;fillColor=#FFFFCC;" parent="1" vertex="1">
          <mxGeometry x="350" y="800" width="110" height="40" as="geometry" />
        </mxCell>
        <mxCell id="-WyuzStrVO0EPppABQ4v-62" value="Salario_Base" style="ellipse;whiteSpace=wrap;html=1;fillColor=#FFFFCC;" parent="1" vertex="1">
          <mxGeometry x="480" y="800" width="110" height="40" as="geometry" />
        </mxCell>
        <mxCell id="-WyuzStrVO0EPppABQ4v-63" value="Nivel" style="ellipse;whiteSpace=wrap;html=1;fillColor=#FFFFCC;" parent="1" vertex="1">
          <mxGeometry x="605" y="800" width="110" height="40" as="geometry" />
        </mxCell>
        <mxCell id="-WyuzStrVO0EPppABQ4v-64" value="" style="endArrow=none;html=1;rounded=0;" parent="1" source="-WyuzStrVO0EPppABQ4v-60" edge="1">
          <mxGeometry width="50" height="50" relative="1" as="geometry">
            <mxPoint x="320" y="650" as="sourcePoint" />
            <mxPoint x="460" y="640" as="targetPoint" />
          </mxGeometry>
        </mxCell>
        <mxCell id="-WyuzStrVO0EPppABQ4v-65" value="" style="endArrow=none;html=1;rounded=0;exitX=0.65;exitY=0.025;exitDx=0;exitDy=0;exitPerimeter=0;" parent="1" source="-WyuzStrVO0EPppABQ4v-59" edge="1">
          <mxGeometry width="50" height="50" relative="1" as="geometry">
            <mxPoint x="422.5" y="690" as="sourcePoint" />
            <mxPoint x="472.5" y="640" as="targetPoint" />
          </mxGeometry>
        </mxCell>
        <mxCell id="-WyuzStrVO0EPppABQ4v-66" value="" style="endArrow=none;html=1;rounded=0;exitX=0.641;exitY=-0.075;exitDx=0;exitDy=0;exitPerimeter=0;entryX=0.344;entryY=0.96;entryDx=0;entryDy=0;entryPerimeter=0;" parent="1" source="-WyuzStrVO0EPppABQ4v-61" edge="1" target="-WyuzStrVO0EPppABQ4v-58">
          <mxGeometry width="50" height="50" relative="1" as="geometry">
            <mxPoint x="472.5" y="690" as="sourcePoint" />
            <mxPoint x="522.5" y="640" as="targetPoint" />
          </mxGeometry>
        </mxCell>
        <mxCell id="-WyuzStrVO0EPppABQ4v-67" value="" style="endArrow=none;html=1;rounded=0;exitX=0.427;exitY=-0.075;exitDx=0;exitDy=0;exitPerimeter=0;entryX=0.556;entryY=1;entryDx=0;entryDy=0;entryPerimeter=0;" parent="1" source="-WyuzStrVO0EPppABQ4v-62" edge="1" target="-WyuzStrVO0EPppABQ4v-58">
          <mxGeometry width="50" height="50" relative="1" as="geometry">
            <mxPoint x="510" y="690" as="sourcePoint" />
            <mxPoint x="522" y="660" as="targetPoint" />
          </mxGeometry>
        </mxCell>
        <mxCell id="-WyuzStrVO0EPppABQ4v-68" value="" style="endArrow=none;html=1;rounded=0;entryX=0.8;entryY=1.02;entryDx=0;entryDy=0;entryPerimeter=0;exitX=0.364;exitY=0;exitDx=0;exitDy=0;exitPerimeter=0;" parent="1" target="-WyuzStrVO0EPppABQ4v-58" edge="1" source="-WyuzStrVO0EPppABQ4v-63">
          <mxGeometry width="50" height="50" relative="1" as="geometry">
            <mxPoint x="740" y="690" as="sourcePoint" />
            <mxPoint x="690" y="580" as="targetPoint" />
          </mxGeometry>
        </mxCell>
        <mxCell id="-WyuzStrVO0EPppABQ4v-69" value="PK" style="text;html=1;align=center;verticalAlign=middle;whiteSpace=wrap;rounded=0;" parent="1" vertex="1">
          <mxGeometry x="160" y="770" width="60" height="30" as="geometry" />
        </mxCell>
        <mxCell id="-WyuzStrVO0EPppABQ4v-70" value="TIENE" style="rhombus;whiteSpace=wrap;html=1;fillColor=#CCFFFF;" parent="1" vertex="1">
          <mxGeometry x="372.5" y="410" width="100" height="100" as="geometry" />
        </mxCell>
        <mxCell id="-WyuzStrVO0EPppABQ4v-71" value="" style="endArrow=none;html=1;rounded=0;entryX=0.588;entryY=1.04;entryDx=0;entryDy=0;entryPerimeter=0;" parent="1" source="-WyuzStrVO0EPppABQ4v-70" target="-WyuzStrVO0EPppABQ4v-17" edge="1">
          <mxGeometry width="50" height="50" relative="1" as="geometry">
            <mxPoint x="320" y="410" as="sourcePoint" />
            <mxPoint x="370" y="360" as="targetPoint" />
          </mxGeometry>
        </mxCell>
        <mxCell id="-WyuzStrVO0EPppABQ4v-72" value="" style="endArrow=none;html=1;rounded=0;exitX=0.438;exitY=0;exitDx=0;exitDy=0;exitPerimeter=0;" parent="1" source="-WyuzStrVO0EPppABQ4v-58" edge="1">
          <mxGeometry width="50" height="50" relative="1" as="geometry">
            <mxPoint x="475.28688524590166" y="557.2131147540983" as="sourcePoint" />
            <mxPoint x="440" y="490" as="targetPoint" />
          </mxGeometry>
        </mxCell>
        <mxCell id="-WyuzStrVO0EPppABQ4v-73" value="N" style="text;html=1;align=center;verticalAlign=middle;whiteSpace=wrap;rounded=0;" parent="1" vertex="1">
          <mxGeometry x="342.5" y="330" width="60" height="30" as="geometry" />
        </mxCell>
        <mxCell id="-WyuzStrVO0EPppABQ4v-74" value="1" style="text;html=1;align=center;verticalAlign=middle;whiteSpace=wrap;rounded=0;" parent="1" vertex="1">
          <mxGeometry x="472.5" y="560" width="60" height="30" as="geometry" />
        </mxCell>
        <mxCell id="-WyuzStrVO0EPppABQ4v-75" value="&lt;div&gt;&lt;br&gt;&lt;/div&gt;PERTENECE_&lt;div&gt;A&lt;/div&gt;" style="rhombus;whiteSpace=wrap;html=1;fillColor=#CCFFFF;" parent="1" vertex="1">
          <mxGeometry x="520" y="410" width="100" height="100" as="geometry" />
        </mxCell>
        <mxCell id="-WyuzStrVO0EPppABQ4v-76" value="" style="endArrow=none;html=1;rounded=0;entryX=0.588;entryY=1.04;entryDx=0;entryDy=0;entryPerimeter=0;exitX=1;exitY=0;exitDx=0;exitDy=0;" parent="1" source="-WyuzStrVO0EPppABQ4v-75" edge="1">
          <mxGeometry width="50" height="50" relative="1" as="geometry">
            <mxPoint x="671" y="425" as="sourcePoint" />
            <mxPoint x="620" y="330" as="targetPoint" />
          </mxGeometry>
        </mxCell>
        <mxCell id="-WyuzStrVO0EPppABQ4v-77" value="" style="endArrow=none;html=1;rounded=0;exitX=1;exitY=1;exitDx=0;exitDy=0;entryX=0.42;entryY=0.94;entryDx=0;entryDy=0;entryPerimeter=0;" parent="1" source="-WyuzStrVO0EPppABQ4v-74" target="-WyuzStrVO0EPppABQ4v-75" edge="1">
          <mxGeometry width="50" height="50" relative="1" as="geometry">
            <mxPoint x="540" y="560" as="sourcePoint" />
            <mxPoint x="565" y="500" as="targetPoint" />
          </mxGeometry>
        </mxCell>
        <mxCell id="-WyuzStrVO0EPppABQ4v-78" value="N" style="text;html=1;align=center;verticalAlign=middle;whiteSpace=wrap;rounded=0;" parent="1" vertex="1">
          <mxGeometry x="497.5" y="560" width="60" height="30" as="geometry" />
        </mxCell>
        <mxCell id="-WyuzStrVO0EPppABQ4v-80" value="1" style="text;html=1;align=center;verticalAlign=middle;whiteSpace=wrap;rounded=0;" parent="1" vertex="1">
          <mxGeometry x="570" y="330" width="60" height="30" as="geometry" />
        </mxCell>
        <mxCell id="-WyuzStrVO0EPppABQ4v-82" value="Asignación_Puesto" style="shape=ext;margin=3;double=1;whiteSpace=wrap;html=1;align=center;fillColor=#FFE6CC;" parent="1" vertex="1">
          <mxGeometry x="-200" y="860" width="210" height="60" as="geometry" />
        </mxCell>
        <mxCell id="-WyuzStrVO0EPppABQ4v-84" value="&lt;u&gt;id_asignación&lt;/u&gt;" style="ellipse;whiteSpace=wrap;html=1;fillColor=#FFFFCC;" parent="1" vertex="1">
          <mxGeometry x="-370" y="960" width="110" height="40" as="geometry" />
        </mxCell>
        <mxCell id="-WyuzStrVO0EPppABQ4v-85" value="id_empleado" style="ellipse;whiteSpace=wrap;html=1;fillColor=#FFFFCC;" parent="1" vertex="1">
          <mxGeometry x="-250" y="960" width="110" height="40" as="geometry" />
        </mxCell>
        <mxCell id="-WyuzStrVO0EPppABQ4v-86" value="id_puesto" style="ellipse;whiteSpace=wrap;html=1;fillColor=#FFFFCC;" parent="1" vertex="1">
          <mxGeometry x="-130" y="960" width="110" height="40" as="geometry" />
        </mxCell>
        <mxCell id="-WyuzStrVO0EPppABQ4v-87" value="Fecha_Inicio" style="ellipse;whiteSpace=wrap;html=1;fillColor=#FFFFCC;" parent="1" vertex="1">
          <mxGeometry x="-10" y="960" width="110" height="40" as="geometry" />
        </mxCell>
        <mxCell id="-WyuzStrVO0EPppABQ4v-88" value="Fecha_Fin" style="ellipse;whiteSpace=wrap;html=1;fillColor=#FFFFCC;" parent="1" vertex="1">
          <mxGeometry x="110" y="960" width="110" height="40" as="geometry" />
        </mxCell>
        <mxCell id="-WyuzStrVO0EPppABQ4v-89" value="" style="endArrow=none;html=1;rounded=0;exitX=0.764;exitY=0.15;exitDx=0;exitDy=0;exitPerimeter=0;" parent="1" source="-WyuzStrVO0EPppABQ4v-84" edge="1">
          <mxGeometry width="50" height="50" relative="1" as="geometry">
            <mxPoint x="-280" y="960" as="sourcePoint" />
            <mxPoint x="-190" y="920" as="targetPoint" />
          </mxGeometry>
        </mxCell>
        <mxCell id="-WyuzStrVO0EPppABQ4v-90" value="" style="endArrow=none;html=1;rounded=0;exitX=0.636;exitY=0.125;exitDx=0;exitDy=0;exitPerimeter=0;" parent="1" source="-WyuzStrVO0EPppABQ4v-85" edge="1">
          <mxGeometry width="50" height="50" relative="1" as="geometry">
            <mxPoint x="-220" y="970" as="sourcePoint" />
            <mxPoint x="-170" y="920" as="targetPoint" />
          </mxGeometry>
        </mxCell>
        <mxCell id="-WyuzStrVO0EPppABQ4v-91" value="" style="endArrow=none;html=1;rounded=0;exitX=0.245;exitY=0.05;exitDx=0;exitDy=0;exitPerimeter=0;" parent="1" source="-WyuzStrVO0EPppABQ4v-86" edge="1">
          <mxGeometry width="50" height="50" relative="1" as="geometry">
            <mxPoint x="-150" y="970" as="sourcePoint" />
            <mxPoint x="-100" y="920" as="targetPoint" />
          </mxGeometry>
        </mxCell>
        <mxCell id="-WyuzStrVO0EPppABQ4v-92" value="" style="endArrow=none;html=1;rounded=0;" parent="1" source="-WyuzStrVO0EPppABQ4v-87" edge="1">
          <mxGeometry width="50" height="50" relative="1" as="geometry">
            <mxPoint x="-120" y="970" as="sourcePoint" />
            <mxPoint x="-70" y="920" as="targetPoint" />
          </mxGeometry>
        </mxCell>
        <mxCell id="-WyuzStrVO0EPppABQ4v-93" value="" style="endArrow=none;html=1;rounded=0;" parent="1" source="-WyuzStrVO0EPppABQ4v-88" edge="1">
          <mxGeometry width="50" height="50" relative="1" as="geometry">
            <mxPoint x="-50" y="970" as="sourcePoint" />
            <mxPoint y="920" as="targetPoint" />
          </mxGeometry>
        </mxCell>
        <mxCell id="-WyuzStrVO0EPppABQ4v-94" value="Asignación_&lt;span style=&quot;background-color: transparent; color: light-dark(rgb(0, 0, 0), rgb(255, 255, 255));&quot; data-end=&quot;942&quot; data-start=&quot;915&quot;&gt;Departamento&lt;/span&gt;" style="shape=ext;margin=3;double=1;whiteSpace=wrap;html=1;align=center;fillColor=#FFE6CC;" parent="1" vertex="1">
          <mxGeometry x="930" y="875" width="210" height="60" as="geometry" />
        </mxCell>
        <mxCell id="-WyuzStrVO0EPppABQ4v-95" value="&lt;u&gt;id_asignación_&lt;/u&gt;&lt;div&gt;&lt;u&gt;departamento&lt;/u&gt;&lt;/div&gt;" style="ellipse;whiteSpace=wrap;html=1;fillColor=#FFFFCC;" parent="1" vertex="1">
          <mxGeometry x="760" y="975" width="110" height="40" as="geometry" />
        </mxCell>
        <mxCell id="-WyuzStrVO0EPppABQ4v-96" value="id_empleado" style="ellipse;whiteSpace=wrap;html=1;fillColor=#FFFFCC;" parent="1" vertex="1">
          <mxGeometry x="880" y="975" width="110" height="40" as="geometry" />
        </mxCell>
        <mxCell id="-WyuzStrVO0EPppABQ4v-97" value="id_departamento" style="ellipse;whiteSpace=wrap;html=1;fillColor=#FFFFCC;" parent="1" vertex="1">
          <mxGeometry x="1000" y="975" width="110" height="40" as="geometry" />
        </mxCell>
        <mxCell id="-WyuzStrVO0EPppABQ4v-98" value="Fecha_Inicio" style="ellipse;whiteSpace=wrap;html=1;fillColor=#FFFFCC;" parent="1" vertex="1">
          <mxGeometry x="1120" y="975" width="110" height="40" as="geometry" />
        </mxCell>
        <mxCell id="-WyuzStrVO0EPppABQ4v-99" value="Fecha_Fin" style="ellipse;whiteSpace=wrap;html=1;fillColor=#FFFFCC;" parent="1" vertex="1">
          <mxGeometry x="1240" y="975" width="110" height="40" as="geometry" />
        </mxCell>
        <mxCell id="-WyuzStrVO0EPppABQ4v-100" value="" style="endArrow=none;html=1;rounded=0;exitX=0.764;exitY=0.15;exitDx=0;exitDy=0;exitPerimeter=0;entryX=0.024;entryY=0.367;entryDx=0;entryDy=0;entryPerimeter=0;" parent="1" source="-WyuzStrVO0EPppABQ4v-95" edge="1" target="-WyuzStrVO0EPppABQ4v-94">
          <mxGeometry width="50" height="50" relative="1" as="geometry">
            <mxPoint x="820" y="770" as="sourcePoint" />
            <mxPoint x="910" y="730" as="targetPoint" />
          </mxGeometry>
        </mxCell>
        <mxCell id="-WyuzStrVO0EPppABQ4v-101" value="" style="endArrow=none;html=1;rounded=0;exitX=0.636;exitY=0.125;exitDx=0;exitDy=0;exitPerimeter=0;" parent="1" source="-WyuzStrVO0EPppABQ4v-96" edge="1">
          <mxGeometry width="50" height="50" relative="1" as="geometry">
            <mxPoint x="910" y="985" as="sourcePoint" />
            <mxPoint x="960" y="935" as="targetPoint" />
          </mxGeometry>
        </mxCell>
        <mxCell id="-WyuzStrVO0EPppABQ4v-102" value="" style="endArrow=none;html=1;rounded=0;exitX=0.245;exitY=0.05;exitDx=0;exitDy=0;exitPerimeter=0;" parent="1" source="-WyuzStrVO0EPppABQ4v-97" edge="1">
          <mxGeometry width="50" height="50" relative="1" as="geometry">
            <mxPoint x="980" y="985" as="sourcePoint" />
            <mxPoint x="1030" y="935" as="targetPoint" />
          </mxGeometry>
        </mxCell>
        <mxCell id="-WyuzStrVO0EPppABQ4v-103" value="" style="endArrow=none;html=1;rounded=0;" parent="1" source="-WyuzStrVO0EPppABQ4v-98" edge="1">
          <mxGeometry width="50" height="50" relative="1" as="geometry">
            <mxPoint x="1010" y="985" as="sourcePoint" />
            <mxPoint x="1060" y="935" as="targetPoint" />
          </mxGeometry>
        </mxCell>
        <mxCell id="-WyuzStrVO0EPppABQ4v-104" value="" style="endArrow=none;html=1;rounded=0;" parent="1" source="-WyuzStrVO0EPppABQ4v-99" edge="1">
          <mxGeometry width="50" height="50" relative="1" as="geometry">
            <mxPoint x="1080" y="985" as="sourcePoint" />
            <mxPoint x="1130" y="935" as="targetPoint" />
          </mxGeometry>
        </mxCell>
        <mxCell id="-WyuzStrVO0EPppABQ4v-106" value="PK" style="text;html=1;align=center;verticalAlign=middle;whiteSpace=wrap;rounded=0;" parent="1" vertex="1">
          <mxGeometry x="-270" y="918" width="60" height="30" as="geometry" />
        </mxCell>
        <mxCell id="-WyuzStrVO0EPppABQ4v-108" value="PK" style="text;html=1;align=center;verticalAlign=middle;whiteSpace=wrap;rounded=0;" parent="1" vertex="1">
          <mxGeometry x="870" y="890" width="60" height="30" as="geometry" />
        </mxCell>
        <mxCell id="-WyuzStrVO0EPppABQ4v-110" value="FK" style="text;html=1;align=center;verticalAlign=middle;whiteSpace=wrap;rounded=0;" parent="1" vertex="1">
          <mxGeometry x="-220" y="930" width="60" height="30" as="geometry" />
        </mxCell>
        <mxCell id="-WyuzStrVO0EPppABQ4v-111" value="FK" style="text;html=1;align=center;verticalAlign=middle;whiteSpace=wrap;rounded=0;" parent="1" vertex="1">
          <mxGeometry x="-143" y="933" width="60" height="30" as="geometry" />
        </mxCell>
        <mxCell id="-WyuzStrVO0EPppABQ4v-112" value="FK" style="text;html=1;align=center;verticalAlign=middle;whiteSpace=wrap;rounded=0;" parent="1" vertex="1">
          <mxGeometry x="910" y="948" width="60" height="30" as="geometry" />
        </mxCell>
        <mxCell id="-WyuzStrVO0EPppABQ4v-113" value="FK" style="text;html=1;align=center;verticalAlign=middle;whiteSpace=wrap;rounded=0;" parent="1" vertex="1">
          <mxGeometry x="983" y="952" width="60" height="30" as="geometry" />
        </mxCell>
        <mxCell id="-WyuzStrVO0EPppABQ4v-122" value="" style="endArrow=none;html=1;rounded=0;exitX=0.25;exitY=1;exitDx=0;exitDy=0;entryX=0;entryY=0;entryDx=0;entryDy=0;" parent="1" source="-WyuzStrVO0EPppABQ4v-17" target="-WyuzStrVO0EPppABQ4v-58" edge="1">
          <mxGeometry relative="1" as="geometry">
            <mxPoint x="250" y="409" as="sourcePoint" />
            <mxPoint x="370" y="580" as="targetPoint" />
          </mxGeometry>
        </mxCell>
        <mxCell id="-WyuzStrVO0EPppABQ4v-124" value="" style="endArrow=none;html=1;rounded=0;exitX=0.581;exitY=0.083;exitDx=0;exitDy=0;exitPerimeter=0;" parent="1" edge="1" source="-WyuzStrVO0EPppABQ4v-82">
          <mxGeometry relative="1" as="geometry">
            <mxPoint x="20" y="670" as="sourcePoint" />
            <mxPoint x="430" y="590" as="targetPoint" />
          </mxGeometry>
        </mxCell>
        <mxCell id="-WyuzStrVO0EPppABQ4v-127" value="" style="endArrow=none;html=1;rounded=0;" parent="1" edge="1">
          <mxGeometry relative="1" as="geometry">
            <mxPoint x="680" y="330" as="sourcePoint" />
            <mxPoint x="590" y="590" as="targetPoint" />
          </mxGeometry>
        </mxCell>
        <mxCell id="-WyuzStrVO0EPppABQ4v-129" value="" style="endArrow=none;html=1;rounded=0;exitX=1;exitY=0;exitDx=0;exitDy=0;entryX=0;entryY=0;entryDx=0;entryDy=0;" parent="1" source="-WyuzStrVO0EPppABQ4v-58" target="-WyuzStrVO0EPppABQ4v-94" edge="1">
          <mxGeometry relative="1" as="geometry">
            <mxPoint x="590" y="614.5" as="sourcePoint" />
            <mxPoint x="750" y="614.5" as="targetPoint" />
          </mxGeometry>
        </mxCell>
        <mxCell id="JUDI98_K_U3rOWkHYfDf-1" value="dni" style="ellipse;whiteSpace=wrap;html=1;fillColor=#FFFFCC;" vertex="1" parent="1">
          <mxGeometry x="20" y="170" width="110" height="40" as="geometry" />
        </mxCell>
        <mxCell id="JUDI98_K_U3rOWkHYfDf-2" value="" style="endArrow=none;html=1;rounded=0;exitX=0.982;exitY=0.725;exitDx=0;exitDy=0;exitPerimeter=0;entryX=0.013;entryY=0.64;entryDx=0;entryDy=0;entryPerimeter=0;" edge="1" parent="1" source="JUDI98_K_U3rOWkHYfDf-1" target="-WyuzStrVO0EPppABQ4v-17">
          <mxGeometry width="50" height="50" relative="1" as="geometry">
            <mxPoint x="123" y="231" as="sourcePoint" />
            <mxPoint x="260" y="250" as="targetPoint" />
          </mxGeometry>
        </mxCell>
        <mxCell id="JUDI98_K_U3rOWkHYfDf-7" value="id_departamento" style="ellipse;whiteSpace=wrap;html=1;fillColor=#FFFFCC;" vertex="1" parent="1">
          <mxGeometry x="20" y="590" width="110" height="40" as="geometry" />
        </mxCell>
        <mxCell id="JUDI98_K_U3rOWkHYfDf-8" value="id_puesto" style="ellipse;whiteSpace=wrap;html=1;fillColor=#FFFFCC;" vertex="1" parent="1">
          <mxGeometry x="20" y="660" width="110" height="40" as="geometry" />
        </mxCell>
        <mxCell id="JUDI98_K_U3rOWkHYfDf-9" value="" style="endArrow=none;html=1;rounded=0;exitX=0.945;exitY=0.25;exitDx=0;exitDy=0;exitPerimeter=0;" edge="1" parent="1" source="JUDI98_K_U3rOWkHYfDf-7">
          <mxGeometry width="50" height="50" relative="1" as="geometry">
            <mxPoint x="120" y="590" as="sourcePoint" />
            <mxPoint x="260" y="320" as="targetPoint" />
          </mxGeometry>
        </mxCell>
        <mxCell id="JUDI98_K_U3rOWkHYfDf-10" value="" style="endArrow=none;html=1;rounded=0;exitX=0.918;exitY=0.2;exitDx=0;exitDy=0;exitPerimeter=0;entryX=0;entryY=1;entryDx=0;entryDy=0;" edge="1" parent="1" source="JUDI98_K_U3rOWkHYfDf-8" target="-WyuzStrVO0EPppABQ4v-17">
          <mxGeometry width="50" height="50" relative="1" as="geometry">
            <mxPoint x="120" y="640" as="sourcePoint" />
            <mxPoint x="260" y="370" as="targetPoint" />
          </mxGeometry>
        </mxCell>
        <mxCell id="JUDI98_K_U3rOWkHYfDf-11" value="FK" style="text;html=1;align=center;verticalAlign=middle;whiteSpace=wrap;rounded=0;" vertex="1" parent="1">
          <mxGeometry x="90" y="560" width="60" height="30" as="geometry" />
        </mxCell>
        <mxCell id="JUDI98_K_U3rOWkHYfDf-13" value="FK" style="text;html=1;align=center;verticalAlign=middle;whiteSpace=wrap;rounded=0;" vertex="1" parent="1">
          <mxGeometry x="90" y="630" width="60" height="30" as="geometry" />
        </mxCell>
        <mxCell id="JUDI98_K_U3rOWkHYfDf-14" value="id_departamento" style="ellipse;whiteSpace=wrap;html=1;fillColor=#FFFFCC;" vertex="1" parent="1">
          <mxGeometry x="730" y="800" width="110" height="40" as="geometry" />
        </mxCell>
        <mxCell id="JUDI98_K_U3rOWkHYfDf-15" value="&lt;span style=&quot;color: rgb(0, 0, 0); font-family: Helvetica; font-size: 12px; font-style: normal; font-variant-ligatures: normal; font-variant-caps: normal; font-weight: 400; letter-spacing: normal; orphans: 2; text-align: center; text-indent: 0px; text-transform: none; widows: 2; word-spacing: 0px; -webkit-text-stroke-width: 0px; white-space: normal; background-color: rgb(236, 236, 236); text-decoration-thickness: initial; text-decoration-style: initial; text-decoration-color: initial; display: inline !important; float: none;&quot;&gt;FK&lt;/span&gt;" style="text;whiteSpace=wrap;html=1;" vertex="1" parent="1">
          <mxGeometry x="730" y="770" width="50" height="40" as="geometry" />
        </mxCell>
        <mxCell id="JUDI98_K_U3rOWkHYfDf-16" value="" style="endArrow=none;html=1;rounded=0;entryX=0.95;entryY=1;entryDx=0;entryDy=0;entryPerimeter=0;exitX=0.091;exitY=0.25;exitDx=0;exitDy=0;exitPerimeter=0;" edge="1" parent="1" source="JUDI98_K_U3rOWkHYfDf-14">
          <mxGeometry width="50" height="50" relative="1" as="geometry">
            <mxPoint x="643" y="800" as="sourcePoint" />
            <mxPoint x="580" y="640" as="targetPoint" />
          </mxGeometry>
        </mxCell>
      </root>
    </mxGraphModel>
  </diagram>
</mxfile>
